<svg xmlns="http://www.w3.org/2000/svg" width="24.56" height="14.139" viewBox="0 0 24.56 14.139">
  <g id="game-controller-gamepad-svgrepo-com_1_" data-name="game-controller-gamepad-svgrepo-com (1)" transform="translate(0.001 -90.021)">
    <g id="Group_417" data-name="Group 417" transform="translate(-0.001 90.021)">
      <g id="Group_416" data-name="Group 416" transform="translate(0 0)">
        <path id="Path_160" data-name="Path 160" d="M24.5,98.933c-.456-6.079-4.186-8.912-6.563-8.912a18.465,18.465,0,0,0-3.511.458,12.923,12.923,0,0,1-2.178.319,12.545,12.545,0,0,1-2.154-.319,17.985,17.985,0,0,0-3.481-.458c-2.377,0-6.107,2.832-6.563,8.912-.222,2.953.225,4.562,1.405,5.066a2.1,2.1,0,0,0,.832.162c1.268,0,3.012-.95,5.464-2.948a8.717,8.717,0,0,1,4.5-1.088,9.231,9.231,0,0,1,4.54,1.081c3.059,2.487,5.005,3.348,6.307,2.793C24.28,103.495,24.726,101.885,24.5,98.933ZM22.72,103.3c-.9.384-2.7-.519-5.359-2.683a.441.441,0,0,0-.038-.028,9.9,9.9,0,0,0-5.071-1.24A9.5,9.5,0,0,0,7.2,100.615c-2.657,2.163-4.46,3.066-5.359,2.683-.546-.233-1.147-1.17-.911-4.313C1.362,93.2,4.848,90.8,6.618,90.8a17.226,17.226,0,0,1,3.288.439,13.093,13.093,0,0,0,2.346.338,13.451,13.451,0,0,0,2.368-.338,17.732,17.732,0,0,1,3.321-.44c1.77,0,5.256,2.4,5.69,8.186C23.867,102.128,23.266,103.065,22.72,103.3Z" transform="translate(0.001 -90.021)" fill="#fff"/>
      </g>
    </g>
    <g id="Group_419" data-name="Group 419" transform="translate(3.992 92.741)">
      <g id="Group_418" data-name="Group 418">
        <path id="Path_161" data-name="Path 161" d="M84.98,153.882a1.565,1.565,0,1,0,1.75,1.554A1.663,1.663,0,0,0,84.98,153.882Zm0,2.331a.783.783,0,1,1,.875-.777A.831.831,0,0,1,84.98,156.214Z" transform="translate(-83.23 -153.882)" fill="#fff"/>
      </g>
    </g>
    <g id="Group_421" data-name="Group 421" transform="translate(13.619 95.85)">
      <g id="Group_420" data-name="Group 420" transform="translate(0 0)">
        <path id="Path_162" data-name="Path 162" d="M285.687,226.867a1.565,1.565,0,1,0,1.75,1.554A1.663,1.663,0,0,0,285.687,226.867Zm0,2.331a.783.783,0,1,1,.875-.777A.831.831,0,0,1,285.687,229.2Z" transform="translate(-283.937 -226.867)" fill="#fff"/>
      </g>
    </g>
    <g id="Group_423" data-name="Group 423" transform="translate(10.556 93.13)">
      <g id="Group_422" data-name="Group 422" transform="translate(0 0)">
        <rect id="Rectangle_155" data-name="Rectangle 155" width="3.501" height="0.777" fill="#fff"/>
      </g>
    </g>
    <g id="Group_425" data-name="Group 425" transform="translate(7.493 95.073)">
      <g id="Group_424" data-name="Group 424" transform="translate(0 0)">
        <path id="Path_163" data-name="Path 163" d="M158.4,208.621a1.957,1.957,0,1,0,2.188,1.943A2.079,2.079,0,0,0,158.4,208.621Zm0,3.109a1.174,1.174,0,1,1,1.313-1.166A1.247,1.247,0,0,1,158.4,211.73Z" transform="translate(-156.215 -208.621)" fill="#fff"/>
      </g>
    </g>
    <g id="Group_427" data-name="Group 427" transform="translate(17.558 91.964)">
      <g id="Group_426" data-name="Group 426" transform="translate(0 0)">
        <ellipse id="Ellipse_7" data-name="Ellipse 7" cx="0.875" cy="0.777" rx="0.875" ry="0.777" fill="#fff"/>
      </g>
    </g>
    <g id="Group_429" data-name="Group 429" transform="translate(17.558 94.295)">
      <g id="Group_428" data-name="Group 428" transform="translate(0 0)">
        <ellipse id="Ellipse_8" data-name="Ellipse 8" cx="0.875" cy="0.777" rx="0.875" ry="0.777" fill="#fff"/>
      </g>
    </g>
    <g id="Group_431" data-name="Group 431" transform="translate(19.308 93.13)">
      <g id="Group_430" data-name="Group 430" transform="translate(0 0)">
        <ellipse id="Ellipse_9" data-name="Ellipse 9" cx="0.875" cy="0.777" rx="0.875" ry="0.777" fill="#fff"/>
      </g>
    </g>
    <g id="Group_433" data-name="Group 433" transform="translate(15.807 93.13)">
      <g id="Group_432" data-name="Group 432" transform="translate(0 0)">
        <ellipse id="Ellipse_10" data-name="Ellipse 10" cx="0.875" cy="0.777" rx="0.875" ry="0.777" fill="#fff"/>
      </g>
    </g>
  </g>
</svg>
