<svg xmlns="http://www.w3.org/2000/svg" width="19.236" height="13.197" viewBox="0 0 19.236 13.197">
  <path id="Icon" d="M41.049,116c4.183,1.633,7.744,1.951,11.778-.591a5.291,5.291,0,0,1-2.926,1.833c.443.606,1.049,1.3,1.049,1.3a6.959,6.959,0,0,0,3.8-1.123,2.881,2.881,0,0,0,1.286-2.675,19.761,19.761,0,0,0-1.271-5.291,6.2,6.2,0,0,0-5.217-3.975c-.207-.015-.355-.015-.443-.015l-.236.236a10.483,10.483,0,0,1,4.079,2.01,14.9,14.9,0,0,0-13.242-.089,9.461,9.461,0,0,1,4.271-2.01l-.177-.177a6.384,6.384,0,0,0-.916.074,6.229,6.229,0,0,0-4.774,3.916,20.329,20.329,0,0,0-1.286,5.527,2.853,2.853,0,0,0,1.212,2.571,6.739,6.739,0,0,0,3.709,1.108s.532-.695,1.064-1.315a5.125,5.125,0,0,1-2.823-1.818l.375.192a7.548,7.548,0,0,0,.689.31Zm2.319-1.285a1.753,1.753,0,1,1,1.685-1.685,1.752,1.752,0,0,1-1.685,1.685Zm6.03,0a1.753,1.753,0,1,1,1.685-1.685A1.752,1.752,0,0,1,49.4,114.712Z" transform="translate(-36.811 -105.431)" fill="#fff"/>
</svg>
