<svg xmlns="http://www.w3.org/2000/svg" width="14.632" height="11.583" viewBox="0 0 14.632 11.583">
  <path id="_004-medium" data-name="004-medium" d="M13.465,3.861l1.168-1.117V2.5H10.588L7.705,9.675,4.426,2.5H.185v.244L1.549,4.386a.572.572,0,0,1,.185.477v6.452a.736.736,0,0,1-.2.64L0,13.818v.241H4.356v-.244L2.82,11.956a.759.759,0,0,1-.212-.64V5.735l3.824,8.327h.444l3.288-8.327v6.634c0,.175,0,.211-.115.326L8.867,13.839v.245h5.738v-.244l-1.14-1.116a.339.339,0,0,1-.13-.326V4.187a.338.338,0,0,1,.13-.326Z" transform="translate(0 -2.5)" fill="#fff"/>
</svg>
