<svg xmlns="http://www.w3.org/2000/svg" width="11.983" height="13.197" viewBox="0 0 11.983 13.197">
  <g id="_x35_1.GitHub" style="isolation: isolate">
    <path id="Icon_83_" d="M17.348,23.2c.469,0,.6-.185.6-.413,0-.2-.007-.744-.011-1.461-2.432.518-2.945-1.152-2.945-1.152a2.29,2.29,0,0,0-.973-1.257c-.792-.533.061-.522.061-.522a1.829,1.829,0,0,1,1.339.885,1.883,1.883,0,0,0,2.546.715,1.819,1.819,0,0,1,.554-1.149c-1.942-.215-3.982-.954-3.982-4.245a3.283,3.283,0,0,1,.9-2.305,3.005,3.005,0,0,1,.077-2.274s.732-.23,2.4.881a8.381,8.381,0,0,1,4.371,0c1.661-1.111,2.393-.881,2.393-.881a3.089,3.089,0,0,1,.087,2.274,3.3,3.3,0,0,1,.9,2.305c0,3.3-2.043,4.026-3.989,4.238a2.038,2.038,0,0,1,.59,1.59c0,1.15-.011,2.073-.011,2.352,0,.225.1.408.6.408Z" transform="translate(-13.681 -10.001)" fill="#fff"/>
  </g>
</svg>
