<svg xmlns="http://www.w3.org/2000/svg" width="24.556" height="24.556" viewBox="0 0 24.556 24.556">
  <g id="_003-calculator" data-name="003-calculator" style="isolation: isolate">
    <path id="Path_79" data-name="Path 79" d="M79.719,82.118h.959v.959a.719.719,0,1,0,1.439,0v-.959h.959a.719.719,0,1,0,0-1.439h-.959v-.959a.719.719,0,1,0-1.439,0v.959h-.959a.719.719,0,1,0,0,1.439Z" transform="translate(-75.211 -75.211)" fill="#fff"/>
    <path id="Path_80" data-name="Path 80" d="M312.719,115.439H315.6a.719.719,0,0,0,0-1.439h-2.878a.719.719,0,0,0,0,1.439Z" transform="translate(-297.036 -108.532)" fill="#fff"/>
    <path id="Path_81" data-name="Path 81" d="M311.077,367h-3.357a.719.719,0,0,0,0,1.439h3.357a.719.719,0,1,0,0-1.439Z" transform="translate(-292.276 -349.398)" fill="#fff"/>
    <path id="Path_82" data-name="Path 82" d="M311.077,317h-3.357a.719.719,0,0,0,0,1.439h3.357a.719.719,0,1,0,0-1.439Z" transform="translate(-292.276 -301.796)" fill="#fff"/>
    <path id="Path_83" data-name="Path 83" d="M92.626,317.21a.719.719,0,0,0-1.017,0l-.69.69-.69-.69a.719.719,0,0,0-1.017,1.017l.69.69-.69.69a.719.719,0,1,0,1.017,1.017l.69-.69.69.69a.719.719,0,0,0,1.017-1.017l-.69-.69.69-.69A.719.719,0,0,0,92.626,317.21Z" transform="translate(-84.731 -301.796)" fill="#fff"/>
    <path id="Path_84" data-name="Path 84" d="M23.309,13.006V2.158A2.161,2.161,0,0,0,21.151,0H2.158A2.161,2.161,0,0,0,0,2.158V21.151a2.161,2.161,0,0,0,2.158,2.158H13.006a7.43,7.43,0,0,0,10.3-10.3ZM21.871,2.158v9.248a7.419,7.419,0,0,0-9.5,0V1.439h8.777A.72.72,0,0,1,21.871,2.158ZM2.158,1.439h8.777v9.5h-9.5V2.158A.72.72,0,0,1,2.158,1.439ZM1.439,21.151V12.374h9.5v.632a7.419,7.419,0,0,0,.471,8.865H2.158A.72.72,0,0,1,1.439,21.151Zm15.683,1.966a6,6,0,1,1,6-6A6,6,0,0,1,17.122,23.118Z" fill="#fff"/>
  </g>
</svg>
