<svg xmlns="http://www.w3.org/2000/svg" width="21.191" height="25.703" viewBox="0 0 21.191 25.703">
  <g id="_006-docs" data-name="006-docs" style="isolation: isolate">
    <g id="Group_356" data-name="Group 356" transform="translate(0)">
      <g id="Group_355" data-name="Group 355">
        <path id="Path_100" data-name="Path 100" d="M65.981,6.369,59.766.154A.525.525,0,0,0,59.4,0h-11.9a2.552,2.552,0,0,0-2.549,2.549v20.6A2.552,2.552,0,0,0,47.493,25.7H63.585a2.552,2.552,0,0,0,2.549-2.549V6.74A.525.525,0,0,0,65.981,6.369ZM59.92,1.791l4.424,4.424H61.42a1.5,1.5,0,0,1-1.5-1.5Zm5.166,21.363a1.5,1.5,0,0,1-1.5,1.5H47.493a1.5,1.5,0,0,1-1.5-1.5V2.549a1.5,1.5,0,0,1,1.5-1.5H58.871V4.715A2.549,2.549,0,0,0,61.42,7.264h3.666v15.89Z" transform="translate(-44.944 0)" fill="#fff"/>
      </g>
    </g>
    <g id="Group_358" data-name="Group 358" transform="translate(10.794 17.645)">
      <g id="Group_357" data-name="Group 357">
        <path id="Path_101" data-name="Path 101" d="M260.724,351.492h-.235a.525.525,0,1,0,0,1.049h.235a.525.525,0,1,0,0-1.049Z" transform="translate(-259.965 -351.492)" fill="#fff"/>
      </g>
    </g>
    <g id="Group_360" data-name="Group 360" transform="translate(4.002 17.645)">
      <g id="Group_359" data-name="Group 359">
        <path id="Path_102" data-name="Path 102" d="M130.289,351.492h-5.1a.525.525,0,1,0,0,1.049h5.1a.525.525,0,1,0,0-1.049Z" transform="translate(-124.669 -351.492)" fill="#fff"/>
      </g>
    </g>
    <g id="Group_362" data-name="Group 362" transform="translate(4.002 15.249)">
      <g id="Group_361" data-name="Group 361">
        <path id="Path_103" data-name="Path 103" d="M137.331,303.747H125.195a.525.525,0,1,0,0,1.049h12.137a.525.525,0,1,0,0-1.049Z" transform="translate(-124.67 -303.747)" fill="#fff"/>
      </g>
    </g>
    <g id="Group_364" data-name="Group 364" transform="translate(4.002 12.852)">
      <g id="Group_363" data-name="Group 363">
        <path id="Path_104" data-name="Path 104" d="M137.331,256H125.195a.525.525,0,1,0,0,1.049h12.137a.525.525,0,1,0,0-1.049Z" transform="translate(-124.67 -256)" fill="#fff"/>
      </g>
    </g>
    <g id="Group_366" data-name="Group 366" transform="translate(4.002 10.455)">
      <g id="Group_365" data-name="Group 365">
        <path id="Path_105" data-name="Path 105" d="M137.331,208.255H125.195a.525.525,0,1,0,0,1.049h12.137a.525.525,0,1,0,0-1.049Z" transform="translate(-124.67 -208.255)" fill="#fff"/>
      </g>
    </g>
  </g>
</svg>
