<svg xmlns="http://www.w3.org/2000/svg" width="24.556" height="24.556" viewBox="0 0 24.556 24.556">
  <g id="icon-1" style="isolation: isolate">
    <g id="Group_344" data-name="Group 344" transform="translate(0 0)">
      <path id="Path_78" data-name="Path 78" d="M24.556,12.279a.719.719,0,0,0-.338-.611l-2.482-1.551,2.481-1.544a.719.719,0,0,0,0-1.22L12.66.11a.719.719,0,0,0-.764,0L.337,7.352a.719.719,0,0,0,0,1.22L2.82,10.117.338,11.668a.719.719,0,0,0,0,1.221L2.82,14.433.338,15.985a.719.719,0,0,0,0,1.22L11.9,24.447a.719.719,0,0,0,.764,0L24.219,17.2a.719.719,0,0,0,0-1.22l-2.482-1.551,2.481-1.544A.719.719,0,0,0,24.556,12.279ZM2.078,7.96l10.2-6.391,10.2,6.391-10.2,6.349Zm20.4,8.636-10.2,6.392L2.076,16.6,4.181,15.28l7.717,4.8a.719.719,0,0,0,.76,0l7.717-4.8Zm-10.2,2.029-10.2-6.348,2.1-1.314,7.717,4.8a.719.719,0,0,0,.76,0l7.717-4.8,2.1,1.314Z" transform="translate(0 0)" fill="#fff"/>
    </g>
  </g>
</svg>
