<svg xmlns="http://www.w3.org/2000/svg" width="25.565" height="21.169" viewBox="0 0 25.565 21.169">
  <g id="_x30_8_Swap" transform="translate(0.504 0.517)" style="isolation: isolate">
    <g id="Group_354" data-name="Group 354" transform="translate(0 0)">
      <g id="Group_353" data-name="Group 353">
        <path id="Path_98" data-name="Path 98" d="M192.916,48.358V47.041a.907.907,0,0,0-1.507-.681l-4.88,4.294a.908.908,0,0,0,0,1.362l4.879,4.3a.908.908,0,0,0,1.507-.681V54.322a8.718,8.718,0,0,1,7.212,4.26.909.909,0,0,0,1.694-.373,9.193,9.193,0,0,0-8.906-9.851Zm8.4,9.813a.4.4,0,0,1-.743.151h0a9.228,9.228,0,0,0-7.908-4.515.256.256,0,0,0-.256.256v1.569a.4.4,0,0,1-.657.3l-4.88-4.3a.4.4,0,0,1,0-.595l4.88-4.294a.4.4,0,0,1,.657.3v1.569a.256.256,0,0,0,.256.256A8.68,8.68,0,0,1,201.312,58.171Z" transform="translate(-177.291 -46.132)" fill="#fff" stroke="#fff" stroke-width="1"/>
        <path id="Path_99" data-name="Path 99" d="M10.483,199.537a.908.908,0,0,0-1.507.681v1.309a8.718,8.718,0,0,1-7.212-4.26h0a.909.909,0,0,0-1.006-.431.879.879,0,0,0-.688.8,9.212,9.212,0,0,0,2.441,6.927,9.063,9.063,0,0,0,6.464,2.924v1.317a.908.908,0,0,0,1.507.681l4.88-4.294a.908.908,0,0,0,0-1.362Zm4.541,5.275-4.88,4.294a.4.4,0,0,1-.657-.3v-1.569a.256.256,0,0,0-.256-.256,8.565,8.565,0,0,1-6.345-2.764,8.7,8.7,0,0,1-2.306-6.541.37.37,0,0,1,.294-.344.4.4,0,0,1,.449.193h0a9.229,9.229,0,0,0,7.908,4.515.256.256,0,0,0,.256-.256v-1.569a.4.4,0,0,1,.658-.3l4.879,4.3A.4.4,0,0,1,15.024,204.812Z" transform="translate(-0.044 -189.583)" fill="#fff" stroke="#fff" stroke-width="1"/>
      </g>
    </g>
  </g>
</svg>
