<svg xmlns="http://www.w3.org/2000/svg" width="24.556" height="24.556" viewBox="0 0 24.556 24.556">
  <path id="_002-user" data-name="002-user" d="M20.96,3.6A12.278,12.278,0,0,0,3.6,20.96,12.278,12.278,0,0,0,20.96,3.6ZM6.155,21.218a6.217,6.217,0,0,1,12.246,0,10.816,10.816,0,0,1-12.246,0ZM8.374,10.737a3.9,3.9,0,1,1,3.9,3.9A3.908,3.908,0,0,1,8.374,10.737ZM19.647,20.22a7.668,7.668,0,0,0-4.458-5,5.343,5.343,0,1,0-5.822,0,7.667,7.667,0,0,0-4.458,5,10.839,10.839,0,1,1,14.738,0Zm0,0" fill="#fff"/>
</svg>
